{
  "accessors": [
    {
      "bufferView": 2,
      "componentType": 5126,
      "count": 28669,
      "max": [
        0.04816219210624695,
        0.02251683548092842,
        0.04969225823879242
      ],
      "min": [
        -0.04816219210624695,
        -0.017187204211950302,
        -0.04969225078821182
      ],
      "type": "VEC3"
    },
    {
      "bufferView": 2,
      "byteOffset": 344028,
      "componentType": 5126,
      "count": 28669,
      "max": [
        0.9999212026596069,
        0.9999979734420776,
        0.9999850392341614
      ],
      "min": [
        -0.9998741745948792,
        -0.9984596967697144,
        -0.9999008774757385
      ],
      "type": "VEC3"
    },
    {
      "bufferView": 1,
      "componentType": 5126,
      "count": 28669,
      "max": [
        0.9984805583953857,
        0.9999645948410034
      ],
      "min": [
        3.4993758163182065e-05,
        3.592207212932408e-05
      ],
      "type": "VEC2"
    },
    {
      "bufferView": 1,
      "byteOffset": 229352,
      "componentType": 5126,
      "count": 28669,
      "max": [
        0.9984805583953857,
        0.9999645948410034
      ],
      "min": [
        3.4993758163182065e-05,
        3.592207212932408e-05
      ],
      "type": "VEC2"
    },
    {
      "bufferView": 1,
      "byteOffset": 458704,
      "componentType": 5126,
      "count": 28669,
      "max": [
        0.9984805583953857,
        0.9999645948410034
      ],
      "min": [
        3.4993758163182065e-05,
        3.592207212932408e-05
      ],
      "type": "VEC2"
    },
    {
      "bufferView": 1,
      "byteOffset": 688056,
      "componentType": 5126,
      "count": 28669,
      "max": [
        0.9984805583953857,
        0.9999645948410034
      ],
      "min": [
        3.4993758163182065e-05,
        3.592207212932408e-05
      ],
      "type": "VEC2"
    },
    {
      "bufferView": 1,
      "byteOffset": 917408,
      "componentType": 5126,
      "count": 28669,
      "max": [
        0.9984805583953857,
        0.9999645948410034
      ],
      "min": [
        3.4993758163182065e-05,
        3.592207212932408e-05
      ],
      "type": "VEC2"
    },
    {
      "bufferView": 0,
      "componentType": 5125,
      "count": 147567,
      "type": "SCALAR"
    }
  ],
  "asset": {
    "extras": {
      "author": "Karolisbutenas (https://sketchfab.com/Karolisbutenas)",
      "license": "CC-BY-NC-SA-4.0 (http://creativecommons.org/licenses/by-nc-sa/4.0/)",
      "source": "https://sketchfab.com/3d-models/orange-halloween-doughnut-5fb01bdf3b624cfe88bd6d5920adc72c",
      "title": "Orange Halloween doughnut"
    },
    "generator": "Sketchfab-14.27.0",
    "version": "2.0"
  },
  "bufferViews": [
    {
      "buffer": 0,
      "byteLength": 590268,
      "name": "floatBufferViews",
      "target": 34963
    },
    {
      "buffer": 0,
      "byteLength": 1146760,
      "byteOffset": 590268,
      "byteStride": 8,
      "name": "floatBufferViews",
      "target": 34962
    },
    {
      "buffer": 0,
      "byteLength": 688056,
      "byteOffset": 1737028,
      "byteStride": 12,
      "name": "floatBufferViews",
      "target": 34962
    }
  ],
  "buffers": [
    {
      "byteLength": 2425084,
      "uri": "scene.bin"
    }
  ],
  "extensionsUsed": [
    "KHR_materials_unlit"
  ],
  "images": [
    {
      "uri": "textures/material_0_baseColor.jpeg"
    }
  ],
  "materials": [
    {
      "extensions": {
        "KHR_materials_unlit": {}
      },
      "name": "material_0",
      "pbrMetallicRoughness": {
        "baseColorTexture": {
          "index": 0
        },
        "metallicFactor": 0.0
      }
    }
  ],
  "meshes": [
    {
      "name": "Object_0",
      "primitives": [
        {
          "attributes": {
            "NORMAL": 1,
            "POSITION": 0,
            "TEXCOORD_0": 2,
            "TEXCOORD_1": 3,
            "TEXCOORD_2": 4,
            "TEXCOORD_3": 5,
            "TEXCOORD_4": 6
          },
          "indices": 7,
          "material": 0,
          "mode": 4
        }
      ]
    }
  ],
  "nodes": [
    {
      "children": [
        1
      ],
      "matrix": [
        1.0,
        0.0,
        0.0,
        0.0,
        0.0,
        2.220446049250313e-16,
        -1.0,
        0.0,
        0.0,
        1.0,
        2.220446049250313e-16,
        0.0,
        0.0,
        0.0,
        0.0,
        1.0
      ],
      "name": "Sketchfab_model"
    },
    {
      "children": [
        2
      ],
      "name": "root"
    },
    {
      "children": [
        3
      ],
      "matrix": [
        1.0,
        0.0,
        0.0,
        0.0,
        0.0,
        2.220446049250313e-16,
        1.0,
        0.0,
        0.0,
        -1.0,
        2.220446049250313e-16,
        0.0,
        0.0,
        0.0,
        0.0,
        1.0
      ],
      "name": "GLTF_SceneRootNode"
    },
    {
      "children": [
        4
      ],
      "name": "_0"
    },
    {
      "mesh": 0,
      "name": "Object_4"
    }
  ],
  "samplers": [
    {
      "magFilter": 9729,
      "minFilter": 9987,
      "wrapS": 10497,
      "wrapT": 10497
    }
  ],
  "scene": 0,
  "scenes": [
    {
      "name": "Sketchfab_Scene",
      "nodes": [
        0
      ]
    }
  ],
  "textures": [
    {
      "sampler": 0,
      "source": 0
    }
  ]
}
